<mxfile host="app.diagrams.net" agent="Mozilla/5.0 (Macintosh; Intel Mac OS X 10_15_7) AppleWebKit/605.1.15 (KHTML, like Gecko) Version/18.3 Safari/605.1.15" version="26.0.16">
  <diagram name="Page-1" id="0r15hY57FVU9z2KOmMOc">
    <mxGraphModel dx="705" dy="286" grid="1" gridSize="10" guides="1" tooltips="1" connect="1" arrows="1" fold="1" page="1" pageScale="1" pageWidth="850" pageHeight="1100" math="0" shadow="0">
      <root>
        <mxCell id="0" />
        <mxCell id="1" parent="0" />
        <mxCell id="MdBR3EAzqOK6wABzqVX0-22" value="" style="rounded=0;whiteSpace=wrap;html=1;fillColor=#d5e8d4;strokeColor=none;opacity=50;" vertex="1" parent="1">
          <mxGeometry x="150" y="355" width="370" height="155" as="geometry" />
        </mxCell>
        <mxCell id="MdBR3EAzqOK6wABzqVX0-5" value="" style="edgeStyle=orthogonalEdgeStyle;rounded=0;orthogonalLoop=1;jettySize=auto;html=1;curved=0;entryX=0;entryY=0.5;entryDx=0;entryDy=0;exitX=1;exitY=0.5;exitDx=0;exitDy=0;" edge="1" parent="1" source="MdBR3EAzqOK6wABzqVX0-1" target="MdBR3EAzqOK6wABzqVX0-3">
          <mxGeometry relative="1" as="geometry">
            <mxPoint x="249.99857142857135" y="485" as="sourcePoint" />
            <mxPoint x="409.9985714285715" y="470" as="targetPoint" />
            <Array as="points">
              <mxPoint x="339.97" y="400" />
              <mxPoint x="339.97" y="400" />
            </Array>
          </mxGeometry>
        </mxCell>
        <mxCell id="MdBR3EAzqOK6wABzqVX0-1" value="" style="rounded=1;whiteSpace=wrap;html=1;fillColor=#ffe6cc;strokeColor=#d79b00;" vertex="1" parent="1">
          <mxGeometry x="189.97" y="370" width="120" height="60" as="geometry" />
        </mxCell>
        <mxCell id="MdBR3EAzqOK6wABzqVX0-2" value="&lt;span style=&quot;font-size: 15px;&quot;&gt;传统迭代算法&lt;/span&gt;" style="text;html=1;align=center;verticalAlign=middle;whiteSpace=wrap;rounded=0;" vertex="1" parent="1">
          <mxGeometry x="199.97" y="385" width="100" height="30" as="geometry" />
        </mxCell>
        <mxCell id="MdBR3EAzqOK6wABzqVX0-7" value="" style="edgeStyle=orthogonalEdgeStyle;rounded=0;orthogonalLoop=1;jettySize=auto;html=1;" edge="1" parent="1" source="MdBR3EAzqOK6wABzqVX0-3">
          <mxGeometry relative="1" as="geometry">
            <mxPoint x="189.97000000000003" y="400" as="targetPoint" />
            <Array as="points">
              <mxPoint x="490" y="400" />
              <mxPoint x="490" y="460" />
              <mxPoint x="170" y="460" />
              <mxPoint x="170" y="400" />
            </Array>
          </mxGeometry>
        </mxCell>
        <mxCell id="MdBR3EAzqOK6wABzqVX0-3" value="" style="rounded=1;whiteSpace=wrap;html=1;fillColor=#f8cecc;strokeColor=#b85450;" vertex="1" parent="1">
          <mxGeometry x="349.97" y="370" width="120" height="60" as="geometry" />
        </mxCell>
        <mxCell id="MdBR3EAzqOK6wABzqVX0-4" value="&lt;span style=&quot;font-size: 15px;&quot;&gt;非线性处理（神经网络）&lt;/span&gt;" style="text;html=1;align=center;verticalAlign=middle;whiteSpace=wrap;rounded=0;" vertex="1" parent="1">
          <mxGeometry x="359.97" y="385" width="100" height="30" as="geometry" />
        </mxCell>
        <mxCell id="MdBR3EAzqOK6wABzqVX0-8" value="" style="rounded=1;whiteSpace=wrap;html=1;fillColor=#ffe6cc;strokeColor=#d79b00;" vertex="1" parent="1">
          <mxGeometry x="219.94" y="550" width="199.97" height="110" as="geometry" />
        </mxCell>
        <mxCell id="MdBR3EAzqOK6wABzqVX0-9" value="&lt;span style=&quot;font-size: 15px;&quot;&gt;传统迭代算法&lt;/span&gt;" style="text;html=1;align=center;verticalAlign=middle;whiteSpace=wrap;rounded=0;" vertex="1" parent="1">
          <mxGeometry x="219.94000000000003" y="550" width="100" height="30" as="geometry" />
        </mxCell>
        <mxCell id="MdBR3EAzqOK6wABzqVX0-13" value="" style="edgeStyle=orthogonalEdgeStyle;rounded=0;orthogonalLoop=1;jettySize=auto;html=1;" edge="1" parent="1" source="MdBR3EAzqOK6wABzqVX0-11">
          <mxGeometry relative="1" as="geometry">
            <mxPoint x="489.94" y="605" as="targetPoint" />
          </mxGeometry>
        </mxCell>
        <mxCell id="MdBR3EAzqOK6wABzqVX0-11" value="&lt;font style=&quot;font-size: 15px;&quot;&gt;可训练参数&lt;/font&gt;" style="ellipse;whiteSpace=wrap;html=1;fillColor=#f8cecc;strokeColor=#b85450;" vertex="1" parent="1">
          <mxGeometry x="289.94" y="575" width="90" height="60" as="geometry" />
        </mxCell>
        <mxCell id="MdBR3EAzqOK6wABzqVX0-16" value="" style="edgeStyle=orthogonalEdgeStyle;rounded=0;orthogonalLoop=1;jettySize=auto;html=1;entryX=0;entryY=0.5;entryDx=0;entryDy=0;" edge="1" parent="1" target="MdBR3EAzqOK6wABzqVX0-8">
          <mxGeometry relative="1" as="geometry">
            <mxPoint x="449.96999999999997" y="605" as="sourcePoint" />
            <mxPoint x="149.91000000000003" y="615" as="targetPoint" />
            <Array as="points">
              <mxPoint x="449.94" y="689" />
              <mxPoint x="189.94" y="689" />
              <mxPoint x="189.94" y="605" />
            </Array>
          </mxGeometry>
        </mxCell>
        <mxCell id="MdBR3EAzqOK6wABzqVX0-20" value="" style="endArrow=none;html=1;rounded=0;exitX=0;exitY=0.5;exitDx=0;exitDy=0;entryX=0;entryY=0.5;entryDx=0;entryDy=0;" edge="1" parent="1" source="MdBR3EAzqOK6wABzqVX0-8" target="MdBR3EAzqOK6wABzqVX0-11">
          <mxGeometry width="50" height="50" relative="1" as="geometry">
            <mxPoint x="299.94" y="569" as="sourcePoint" />
            <mxPoint x="349.94" y="519" as="targetPoint" />
          </mxGeometry>
        </mxCell>
        <mxCell id="MdBR3EAzqOK6wABzqVX0-21" value="&lt;span style=&quot;font-style: normal; font-variant-caps: normal; font-weight: 400; letter-spacing: normal; text-align: start; text-indent: 0px; text-transform: none; white-space: normal; word-spacing: 0px; -webkit-text-stroke-width: 0px; text-decoration: none; caret-color: rgb(0, 0, 0); color: rgb(0, 0, 0);&quot;&gt;&lt;font style=&quot;font-size: 15px;&quot;&gt;模块化的串联叠加&lt;/font&gt;&lt;/span&gt;" style="text;whiteSpace=wrap;html=1;" vertex="1" parent="1">
          <mxGeometry x="370" y="470" width="130" height="40" as="geometry" />
        </mxCell>
        <mxCell id="MdBR3EAzqOK6wABzqVX0-23" value="" style="endArrow=classic;html=1;rounded=0;exitX=1;exitY=0.5;exitDx=0;exitDy=0;" edge="1" parent="1" source="MdBR3EAzqOK6wABzqVX0-3">
          <mxGeometry width="50" height="50" relative="1" as="geometry">
            <mxPoint x="580" y="460" as="sourcePoint" />
            <mxPoint x="510" y="400" as="targetPoint" />
          </mxGeometry>
        </mxCell>
      </root>
    </mxGraphModel>
  </diagram>
</mxfile>
